<?xml version="1.0" ?><svg height="512" viewBox="0 0 512 512" width="512" xmlns="http://www.w3.org/2000/svg"><defs><style>
      .cls-1 {
        fill: #fbae17;
      }

      .cls-2 {
        fill: none;
        stroke: #000;
        stroke-linecap: round;
        stroke-linejoin: round;
        stroke-width: 3px;
      }

      .cls-3 {
        fill: #fff;
      }
    </style></defs><title/><g data-name="Set v 2" id="Set_v_2"><g><circle class="cls-1" cx="256" cy="257.43" r="190"/><circle class="cls-2" cx="256" cy="257.43" r="190"/><path class="cls-2" d="M404.74,344q-4.28,7.53-9.27,14.58"/><path class="cls-2" d="M426.5,270.47A170,170,0,0,1,410,334"/><path class="cls-2" d="M426.16,244.79q.66,7.5.66,15.17"/><path class="cls-2" d="M298.88,94.56q5.87,1.51,11.54,3.42"/><path class="cls-2" d="M198.27,99.12a172.11,172.11,0,0,1,94-6.13"/><path class="cls-2" d="M178.2,107.82q6.44-3.3,13.16-6"/><path class="cls-2" d="M87.2,286.56q-1.24-8.06-1.75-16.34"/><path class="cls-2" d="M123.13,367.38a170.18,170.18,0,0,1-34.36-72.27"/><path class="cls-2" d="M136.74,382.3q-4-3.87-7.69-8"/><g><path class="cls-3" d="M384.38,294.58a71.28,71.28,0,0,1-126.29,45.35A71.32,71.32,0,0,0,242.38,235.1c9.2-45,28.57-85.78,28.57-85.78l40,9.77s-7.12,44.43-11.17,65.44a70.23,70.23,0,0,1,13.3-1.25A71.3,71.3,0,0,1,384.38,294.58Z"/><path class="cls-3" d="M258.09,339.93a71.32,71.32,0,0,1-121.38-19.21.11.11,0,0,1,0-.07c-.47-.91-1-1.87-1.42-2.89-26.85-57.84,25.67-168.44,25.67-168.44l40,9.77s-7.12,44.43-11.17,65.44a71.33,71.33,0,0,1,52.62,10.57c-5.95,29.09-7.65,59.94,2.9,82.66.47,1,.95,2,1.42,2.89a.11.11,0,0,0,0,.07A71,71,0,0,0,258.09,339.93Z"/><path class="cls-1" d="M274.36,294.58a71,71,0,0,1-16.27,45.35,71,71,0,0,1-11.36-19.21.11.11,0,0,1,0-.07c-.47-.91-.95-1.87-1.42-2.89-10.55-22.72-8.85-53.57-2.9-82.66A71.24,71.24,0,0,1,274.36,294.58Z"/><path class="cls-2" d="M384.38,294.58a71.28,71.28,0,0,1-126.29,45.35A71.32,71.32,0,0,0,242.38,235.1c9.2-45,28.57-85.78,28.57-85.78l40,9.77s-7.12,44.43-11.17,65.44a70.23,70.23,0,0,1,13.3-1.25A71.3,71.3,0,0,1,384.38,294.58Z"/><path class="cls-2" d="M258.09,339.93a71.32,71.32,0,0,1-121.38-19.21.11.11,0,0,1,0-.07c-.47-.91-1-1.87-1.42-2.89-26.85-57.84,25.67-168.44,25.67-168.44l40,9.77s-7.12,44.43-11.17,65.44a71.33,71.33,0,0,1,52.62,10.57c-5.95,29.09-7.65,59.94,2.9,82.66.47,1,.95,2,1.42,2.89a.11.11,0,0,0,0,.07A71,71,0,0,0,258.09,339.93Z"/><path class="cls-2" d="M274.36,294.58a71,71,0,0,1-16.27,45.35,71,71,0,0,1-11.36-19.21.11.11,0,0,1,0-.07c-.47-.91-.95-1.87-1.42-2.89-10.55-22.72-8.85-53.57-2.9-82.66A71.24,71.24,0,0,1,274.36,294.58Z"/></g></g></g></svg>